<svg xmlns="http://www.w3.org/2000/svg" viewBox="0 0 611.29 626.67"><defs><style>.a{fill:#161616;}.b{fill:#e8648d;}.c{fill:#249bd5;}.d{fill:#74c1e7;}.e{fill:#e889ab;}.f{fill:#49acdc;}.g{fill:#ea4f78;}.h{fill:#b7dbc4;}.i{fill:#83c6a3;}.j{fill:#f7ad1a;}.k{fill:#9872b0;}.l{fill:#fecf73;}.m{fill:#8358a0;}.n{fill:#fcc149;}.o{fill:#b595c5;}</style></defs><rect class="a" x="247.92" y="562.68" width="117.9" height="18.29" rx="9.14"/><rect class="a" x="263.7" y="585.53" width="86.33" height="18.29" rx="9.14"/><path class="a" d="M276.75,608.39a2.23,2.23,0,0,0-1.94,3.13c3.44,8.69,16.49,15.15,32.06,15.15s28.62-6.46,32.06-15.15a2.23,2.23,0,0,0-1.93-3.13Z"/><path class="b" d="M453.08,338.76a146.27,146.27,0,0,1-4.33,31.4q-3.09,12.31-7.22,24.2l-53.48-16.7,63.06-67.77a147.54,147.54,0,0,1,2,22.6c0,.54,0,1.08,0,1.62,0,.78,0,1.55,0,2.33S453.1,338,453.08,338.76Z"/><polygon class="c" points="451.11 309.89 388.05 377.66 363.05 313.13 451.11 309.89"/><path class="d" d="M451.11,309.89l-88.06,3.24,64.51-61.44A145.46,145.46,0,0,1,451.11,309.89Z"/><path class="e" d="M441.53,394.36s0,0,0,0l-88.76,64.16,35.28-80.87Z"/><path class="b" d="M352.77,458.53l88.76-64.16A292.24,292.24,0,0,1,380,497Z"/><path class="f" d="M427.56,251.69l-64.51,61.44-8.46-117.07A146.64,146.64,0,0,1,427.56,251.69Z"/><polygon class="f" points="363.05 313.13 388.05 377.66 299.72 374.42 363.05 313.13"/><polygon class="g" points="388.05 377.66 352.77 458.53 299.72 374.42 388.05 377.66"/><path class="h" d="M380,497v44.5a12,12,0,0,1-12,12H290.07Z"/><polygon class="h" points="352.77 458.53 380.01 497.04 287.85 502.26 352.77 458.53"/><polygon class="i" points="380.01 497.04 290.07 553.54 289.65 553.54 287.85 502.26 380.01 497.04"/><polygon class="d" points="354.59 196.06 363.05 313.13 282.56 258.01 354.59 196.06"/><polygon class="c" points="363.05 313.13 299.72 374.42 282.56 258.01 363.05 313.13"/><path class="f" d="M354.59,196.06l-72,61.95,6.9-68.88h0a147.06,147.06,0,0,1,65.13,6.94Z"/><polygon class="e" points="299.72 374.42 352.77 458.53 269.16 421.45 299.72 374.42"/><polygon class="b" points="352.77 458.53 287.85 502.26 269.16 421.45 352.77 458.53"/><polygon class="j" points="282.56 258.01 299.72 374.42 196.39 328.37 282.56 258.01"/><polygon class="k" points="299.72 374.42 269.16 421.45 196.39 328.37 299.72 374.42"/><polygon class="h" points="287.85 502.26 289.65 553.54 289.4 553.54 233.73 497.04 233.74 497.04 287.85 502.26"/><path class="l" d="M289.46,189.12h0L282.56,258l-59-43.28-.28-.4A145.23,145.23,0,0,1,289.46,189.12Z"/><path class="i" d="M233.73,497l55.67,56.5H245.73a12,12,0,0,1-12-12Z"/><polygon class="m" points="269.16 421.45 287.85 502.26 233.74 497.04 233.73 497.03 269.16 421.45"/><polygon class="l" points="282.56 258.01 196.39 328.37 173.66 273.85 282.56 258.01"/><path class="n" d="M282.56,258l-108.9,15.84a146.79,146.79,0,0,1,49.61-59.52l.28.4Z"/><polygon class="m" points="196.39 328.37 269.16 421.45 180.38 415.3 180.38 415.29 196.39 328.37"/><path class="k" d="M269.16,421.45,233.73,497a292.73,292.73,0,0,1-53.35-81.73Z"/><path class="n" d="M173.66,273.85l22.73,54.52L161,345.52c-.17-2.24-.3-4.49-.37-6.76,0-.78,0-1.55,0-2.32s0-1.55,0-2.33c0-.54,0-1.08,0-1.62A145.8,145.8,0,0,1,173.66,273.85Z"/><path class="o" d="M161,345.52l35.36-17.15-16,86.92A289.25,289.25,0,0,1,165,370.14a145.55,145.55,0,0,1-4-24.61Z"/><polygon class="g" points="173.73 1.8 235.15 134.57 198.42 9.48 173.73 1.8"/><polygon class="c" points="0 149.14 122.54 229.08 4.04 174.69 0 149.14"/><polygon class="m" points="435.99 0 378.56 134.54 411.55 8.41 435.99 0"/><polygon class="j" points="611.29 145.52 491.2 229.06 608.03 171.16 611.29 145.52"/></svg>